<?xml version="1.0" encoding="UTF-8" standalone="no"?>
<svg
   height="128"
   width="128"
   version="1.1"
   id="svg7"
   sodipodi:docname="icon.svg"
   inkscape:version="1.3.2 (091e20ef0f, 2023-11-25, custom)"
   xml:space="preserve"
   xmlns:inkscape="http://www.inkscape.org/namespaces/inkscape"
   xmlns:sodipodi="http://sodipodi.sourceforge.net/DTD/sodipodi-0.dtd"
   xmlns="http://www.w3.org/2000/svg"
   xmlns:svg="http://www.w3.org/2000/svg"><defs
     id="defs7" /><sodipodi:namedview
     id="namedview7"
     pagecolor="#ffffff"
     bordercolor="#666666"
     borderopacity="1.0"
     inkscape:showpageshadow="2"
     inkscape:pageopacity="0.0"
     inkscape:pagecheckerboard="0"
     inkscape:deskcolor="#d1d1d1"
     inkscape:zoom="2.8284271"
     inkscape:cx="44.724504"
     inkscape:cy="62.57895"
     inkscape:window-width="1916"
     inkscape:window-height="1036"
     inkscape:window-x="0"
     inkscape:window-y="0"
     inkscape:window-maximized="1"
     inkscape:current-layer="g6"
     showguides="true"><sodipodi:guide
       position="61.256544,128"
       orientation="0,1"
       id="guide3"
       inkscape:locked="false"
       inkscape:label=""
       inkscape:color="rgb(0,134,229)" /></sodipodi:namedview><g
     id="g6"
     inkscape:label="icon"><g
       id="g3"
       inkscape:label="outer_layer"
       transform="matrix(1.0053778,0,0,1.0385199,-0.53737203,-2.8705664)"><path
         style="display:inline;fill:#363d52;fill-opacity:1;stroke:none;stroke-width:0.185;stroke-linecap:round;stroke-linejoin:round;stroke-dasharray:none"
         d="m 26.396484,2.7644245 h 75.593746 c 14.2594,0 25.85938,11.5999855 25.85938,25.8593745 v 53.25586 c 0,14.259395 -11.59998,25.861321 -25.85938,25.861321 H 83.460938 l -17.580079,17.48243 c -0.530958,0.52808 -1.226437,0.79296 -1.921875,0.79296 -0.694717,0 -1.38897,-0.26488 -1.919922,-0.79296 L 44.458984,107.74098 h -18.0625 c -14.260115,0 -25.86132775,-11.601926 -25.86132775,-25.861321 V 28.623799 C 0.53515625,14.36441 12.136369,2.7644245 26.396484,2.7644245 Z"
         id="path10"
         inkscape:label="outer_fill" /><path
         fill-rule="nonzero"
         fill="#000000"
         fill-opacity="1"
         d="m 26.395635,8.2121833 c -11.25617,0 -20.4130474,9.1568777 -20.4130474,20.4123287 v 53.255276 c 0,11.255456 9.1568774,20.412322 20.4130474,20.412322 H 45.58228 c 0.719972,0 1.411078,0.28496 1.921121,0.79283 l 16.456106,16.36521 16.456826,-16.36521 c 0.510036,-0.50787 1.20115,-0.79283 1.921114,-0.79283 H 101.9894 c 11.25546,0 20.41233,-9.156866 20.41233,-20.412322 V 28.624512 c 0,-11.255451 -9.15687,-20.4123287 -20.41233,-20.4123287 z M 63.959507,126.01643 c -0.694718,0 -1.389443,-0.26475 -1.920395,-0.79283 L 44.458323,107.74021 H 26.395635 c -14.26013,0 -25.8611374,-11.601012 -25.8611374,-25.860422 V 28.624512 c 0,-14.259404 11.6010074,-25.8604182 25.8611374,-25.8604182 H 101.9894 c 14.25941,0 25.86042,11.6010142 25.86042,25.8604182 v 53.255276 c 0,14.25941 -11.60101,25.860422 -25.86042,25.860422 H 83.461412 l -17.58079,17.48339 c -0.530959,0.52808 -1.225677,0.79283 -1.921115,0.79283"
         id="path3-7"
         style="display:inline;fill:#212532;fill-opacity:1;stroke-width:0.185;stroke-dasharray:none"
         inkscape:label="outer_border" /></g><g
       id="g1"
       inkscape:label="cog"><path
         style="display:inline;fill:#498fbf;fill-opacity:1;stroke:#fdfdfd;stroke-width:6;stroke-linecap:round;stroke-linejoin:round;stroke-dasharray:none;stroke-opacity:1"
         d="m 59.554688,18.698018 h 8.675781 c 2.340253,0 4.311747,1.828353 4.486328,4.162109 l 0.367187,4.941407 c 1.376447,0.45521 2.720483,1.014677 4.017578,1.671875 l 3.75586,-3.234375 c 1.773222,-1.527221 4.460323,-1.42907 6.115234,0.226562 l 6.134766,6.134766 c 1.655631,1.655631 1.753784,4.341292 0.226562,6.115234 l -3.248046,3.771485 c 0.649267,1.289879 1.201978,2.628897 1.654296,4.003906 l 4.962891,0.36914 c 2.334485,0.174581 4.164065,2.145362 4.164065,4.486328 v 8.673829 c 0,2.340966 -1.82958,4.312467 -4.164065,4.486328 l -4.964844,0.371093 c -0.452318,1.371397 -1.007997,2.706002 -1.660156,3.998047 l 3.248047,3.771485 c 1.527219,1.773942 1.427124,4.460323 -0.228516,6.115234 l -6.132812,6.134766 c -1.655633,1.654911 -4.341284,1.755016 -6.115235,0.228515 l -3.767578,-3.24414 c -1.292044,0.652152 -2.630639,1.207619 -4.007812,1.662109 l -0.371094,4.949219 c -0.174581,2.334476 -2.14412,4.164062 -4.484375,4.164062 h -8.675781 c -2.340975,0 -4.309787,-1.829586 -4.484375,-4.164062 l -0.369141,-4.931641 c -1.382215,-0.45377 -2.727877,-1.011484 -4.029297,-1.667968 l -3.74414,3.222656 c -1.773943,1.527219 -4.459594,1.427108 -6.115235,-0.228516 L 34.667969,78.754659 C 33.013056,77.099026 32.912228,74.413365 34.439453,72.639424 L 37.65625,68.905049 C 36.995443,67.59858 36.43322,66.247403 35.976562,64.860127 l -4.90625,-0.365234 c -2.333756,-0.174581 -4.162109,-2.145355 -4.162109,-4.486328 v -8.673828 c 0,-2.340974 1.828353,-4.312469 4.162109,-4.486328 l 4.91211,-0.365235 c 0.457375,-1.390151 1.016405,-2.743296 1.675781,-4.046875 l -3.210937,-3.728515 c -1.527221,-1.773944 -1.426397,-4.460321 0.228515,-6.115235 l 6.134766,-6.134765 c 1.654912,-1.65564 4.340565,-1.755743 6.115234,-0.228516 l 3.740235,3.220703 c 1.303584,-0.657203 2.652718,-1.215437 4.037109,-1.669922 l 0.367187,-4.919922 c 0.174581,-2.333756 2.144121,-4.162109 4.484376,-4.162109 z"
         id="path38"
         inkscape:label="cog_fill" /><path
         id="path2-6"
         style="display:inline;stroke-width:0.185;stroke-dasharray:none;fill:#212532;fill-opacity:1;stroke:none"
         d="m 59.554688,18.698018 c -2.340257,0 -4.309795,1.82835 -4.484376,4.162109 l -0.367187,4.919922 c -1.384392,0.454485 -2.733523,1.012718 -4.037109,1.669922 l -3.740235,-3.220703 c -1.774671,-1.527229 -4.46032,-1.427125 -6.115234,0.228516 l -6.134766,6.134765 c -1.654914,1.654915 -1.755737,4.34129 -0.228515,6.115235 l 3.210937,3.728515 c -0.659377,1.30358 -1.218405,2.656722 -1.675781,4.046875 l -4.91211,0.365235 c -2.333759,0.17386 -4.162109,2.145352 -4.162109,4.486328 v 8.673828 c 0,2.340975 1.82835,4.311747 4.162109,4.486328 l 4.90625,0.365234 c 0.456658,1.387277 1.01888,2.738451 1.679688,4.044922 l -3.216797,3.734375 c -1.527227,1.773943 -1.426398,4.459601 0.228516,6.115235 l 6.132812,6.132812 c 1.655642,1.655626 4.341291,1.755737 6.115235,0.228516 l 3.74414,-3.222656 c 1.301421,0.656485 2.64708,1.214197 4.029297,1.667968 l 0.369141,4.931641 c 0.174588,2.334478 2.143398,4.164062 4.484375,4.164062 h 8.675781 c 2.340257,0 4.309794,-1.829584 4.484375,-4.164062 l 0.371094,-4.949219 c 1.377175,-0.454491 2.715766,-1.009956 4.007812,-1.662109 l 3.767578,3.24414 c 1.773952,1.526502 4.459601,1.426398 6.115235,-0.228515 l 6.132812,-6.134766 c 1.655641,-1.654913 1.755737,-4.34129 0.228516,-6.115234 l -3.248047,-3.771485 c 0.65216,-1.292047 1.207837,-2.626649 1.660156,-3.998047 l 4.964844,-0.371093 c 2.334487,-0.173861 4.164065,-2.145359 4.164065,-4.486328 v -8.673829 c 0,-2.340969 -1.829578,-4.311747 -4.164065,-4.486328 l -4.962891,-0.36914 c -0.452319,-1.37501 -1.005028,-2.714025 -1.654296,-4.003906 l 3.248046,-3.771485 c 1.527223,-1.773944 1.429071,-4.459601 -0.226562,-6.115234 l -6.134766,-6.134766 c -1.654913,-1.655634 -4.34201,-1.753784 -6.115234,-0.226562 l -3.75586,3.234375 c -1.297097,-0.657198 -2.64113,-1.216664 -4.017578,-1.671875 l -0.367187,-4.941407 c -0.174581,-2.333759 -2.146072,-4.162109 -4.486328,-4.162109 z m 0.882812,5.447266 h 6.912109 l 0.44336,5.939453 c 0.08657,1.165074 0.905936,2.144822 2.037109,2.435547 2.181548,0.560535 4.276803,1.433932 6.22461,2.591797 1.00709,0.598049 2.282585,0.486629 3.169921,-0.277344 l 4.519532,-3.892578 4.886718,4.886718 -3.902343,4.53125 c -0.762527,0.885889 -0.873739,2.158417 -0.279297,3.164063 1.145598,1.936264 2.009263,4.02804 2.568359,6.216797 0.290006,1.132612 1.270973,1.953725 2.4375,2.041015 l 5.962891,0.445313 v 6.912109 l -5.964844,0.445313 c -1.165801,0.08657 -2.146767,0.906443 -2.4375,2.039062 -0.55765,2.177936 -1.424084,4.269417 -2.576172,6.212891 -0.595161,1.005646 -0.483236,2.278166 0.279297,3.164062 l 3.904297,4.533203 -4.886719,4.886719 -4.529297,-3.898437 c -0.886615,-0.763247 -2.162323,-0.874673 -3.167969,-0.277344 -1.936264,1.149202 -4.027827,2.015424 -6.21875,2.578125 -1.131171,0.290726 -1.951772,1.270465 -2.039062,2.435547 l -0.445312,5.951172 H 60.425781 L 59.982422,81.27419 c -0.08729,-1.16724 -0.908919,-2.14894 -2.042969,-2.4375 -2.189484,-0.558377 -4.290264,-1.427052 -6.240234,-2.582031 -1.005653,-0.595165 -2.278167,-0.483959 -3.164063,0.279296 l -4.503906,3.878907 -4.886719,-4.886719 3.871094,-4.498047 c 0.763975,-0.887335 0.875393,-2.161604 0.277344,-3.167969 -1.16075,-1.954302 -2.033214,-4.057631 -2.59375,-6.25 -0.290006,-1.133337 -1.269027,-1.955678 -2.435547,-2.042968 l -5.908203,-0.441407 v -6.910156 l 5.912109,-0.441406 c 1.165801,-0.08729 2.147487,-0.908397 2.4375,-2.041016 0.563415,-2.202463 1.434651,-4.305587 2.591797,-6.251953 0.598049,-1.006365 0.48663,-2.282593 -0.277344,-3.169922 l -3.867187,-4.490234 4.886718,-4.886719 4.5,3.875 c 0.88589,0.762534 2.160371,0.874461 3.166016,0.279297 1.954302,-1.156425 4.053938,-2.025101 6.244141,-2.582031 1.134777,-0.288568 1.959585,-1.269533 2.046875,-2.4375 z"
         inkscape:label="cog_border" /><path
         style="display:inline;fill:#ffffff;fill-opacity:1;stroke:none;stroke-width:0.215865;stroke-linecap:round;stroke-linejoin:round;stroke-dasharray:none"
         d="m 63.859212,43.81493 c -6.538852,0 -11.857534,5.318681 -11.857534,11.857534 0,6.538861 5.318682,11.859814 11.857534,11.859814 6.538861,0 11.859812,-5.320953 11.859814,-11.859814 0,-6.538853 -5.320953,-11.857534 -11.859814,-11.857534 z"
         id="path35"
         inkscape:label="inner_circle_fill" /><path
         fill-rule="nonzero"
         fill="#000000"
         fill-opacity="1"
         d="m 63.859946,45.509857 c -5.603914,0 -10.163236,4.559322 -10.163236,10.163237 0,5.603921 4.559322,10.163243 10.163236,10.163243 5.603922,0 10.163244,-4.559322 10.163244,-10.163243 0,-5.603915 -4.559322,-10.163237 -10.163244,-10.163237 m 0,25.774571 c -8.607874,0 -15.611326,-7.00346 -15.611326,-15.611334 0,-8.607875 7.003452,-15.611334 15.611326,-15.611334 8.607882,0 15.611342,7.003459 15.611342,15.611334 0,8.607874 -7.00346,15.611334 -15.611342,15.611334"
         id="path1-3"
         style="display:inline;stroke-width:0.184681;fill:#212532;fill-opacity:1"
         inkscape:label="inner_circle_border" /></g></g></svg>
