<svg height="128" width="128" xmlns="http://www.w3.org/2000/svg"><g transform="matrix(1.2069198 0 0 1.2069198 -13.209634 -13.644449)"><path d="m31.990625 107.77101c-2.454485-.62172-12.977318-11.88307-16.210057-17.347704l-.717118-1.212221.0012-25.345772c.0012-27.124636.01032-27.402655.990881-30.364374 2.171878-6.560017 7.067748-11.169561 13.163425-12.393586 1.424415-.286026 5.001296-.312382 35.537168-.261855l33.953339.05618 1.450907.449341c6.26142 1.939135 10.97121 7.277804 12.44166 14.102962.34071 1.581383.3619 3.284795.3619 29.099752v27.420043l-.54463 1.979786c-1.88827 6.864068-6.41716 11.614438-12.800444 13.426398l-1.503329.42673-32.864456.0323c-18.075451.0177-33.042637-.0129-33.260413-.068z" fill="#363d52"/><path d="m32.639245 21.260729c-9.359685 0-16.973773 8.377219-16.973773 18.674328v48.720875c0 2.263895 14.13147 18.674318 16.973773 18.674318h15.954 30.562506 16.340911c9.359088 0 16.973188-8.377203 16.973188-18.674318v-48.720875c0-10.297109-7.6141-18.674328-16.973188-18.674328zm15.019412 91.053741h-15.019412c-25.2021149 0-21.503949 5.41801-21.503949-23.658538v-48.720875c0-13.045293 9.646425-23.658541 21.503949-23.658541h62.857417c11.856948 0 21.503348 10.613248 21.503348 23.658541v48.720875c0 13.045288-9.6464 23.658538-21.503348 23.658538h-15.406318" fill="#212532" stroke-width=".161354"/><g transform="translate(1.091797 8.301982)"><path d="m59.554688 18.698018h8.675781c2.340253 0 4.311747 1.828353 4.486328 4.162109l.367187 4.941407c1.376447.45521 2.720483 1.014677 4.017578 1.671875l3.75586-3.234375c1.773222-1.527221 4.460323-1.42907 6.115234.226562l6.134766 6.134766c1.655631 1.655631 1.753784 4.341292.226562 6.115234l-3.248046 3.771485c.649267 1.289879 1.201978 2.628897 1.654296 4.003906l4.962891.36914c2.334485.174581 4.164065 2.145362 4.164065 4.486328v8.673829c0 2.340966-1.82958 4.312467-4.164065 4.486328l-4.964844.371093c-.452318 1.371397-1.007997 2.706002-1.660156 3.998047l3.248047 3.771485c1.527219 1.773942 1.427124 4.460323-.228516 6.115234l-6.132812 6.134766c-1.655633 1.654911-4.341284 1.755016-6.115235.228515l-3.767578-3.24414c-1.292044.652152-2.630639 1.207619-4.007812 1.662109l-.371094 4.949219c-.174581 2.334476-2.14412 4.164062-4.484375 4.164062h-8.675781c-2.340975 0-4.309787-1.829586-4.484375-4.164062l-.369141-4.931641c-1.382215-.45377-2.727877-1.011484-4.029297-1.667968l-3.74414 3.222656c-1.773943 1.527219-4.459594 1.427108-6.115235-.228516l-6.132812-6.132812c-1.654913-1.655633-1.755741-4.341294-.228516-6.115235l3.216797-3.734375c-.660807-1.306469-1.22303-2.657646-1.679688-4.044922l-4.90625-.365234c-2.333756-.174581-4.162109-2.145355-4.162109-4.486328v-8.673828c0-2.340974 1.828353-4.312469 4.162109-4.486328l4.91211-.365235c.457375-1.390151 1.016405-2.743296 1.675781-4.046875l-3.210937-3.728515c-1.527221-1.773944-1.426397-4.460321.228515-6.115235l6.134766-6.134765c1.654912-1.65564 4.340565-1.755743 6.115234-.228516l3.740235 3.220703c1.303584-.657203 2.652718-1.215437 4.037109-1.669922l.367187-4.919922c.174581-2.333756 2.144121-4.162109 4.484376-4.162109z" fill="#498fbf" stroke="#fdfdfd" stroke-linecap="round" stroke-linejoin="round" stroke-width="6"/><path d="m59.554688 18.698018c-2.340257 0-4.309795 1.82835-4.484376 4.162109l-.367187 4.919922c-1.384392.454485-2.733523 1.012718-4.037109 1.669922l-3.740235-3.220703c-1.774671-1.527229-4.46032-1.427125-6.115234.228516l-6.134766 6.134765c-1.654914 1.654915-1.755737 4.34129-.228515 6.115235l3.210937 3.728515c-.659377 1.30358-1.218405 2.656722-1.675781 4.046875l-4.91211.365235c-2.333759.17386-4.162109 2.145352-4.162109 4.486328v8.673828c0 2.340975 1.82835 4.311747 4.162109 4.486328l4.90625.365234c.456658 1.387277 1.01888 2.738451 1.679688 4.044922l-3.216797 3.734375c-1.527227 1.773943-1.426398 4.459601.228516 6.115235l6.132812 6.132812c1.655642 1.655626 4.341291 1.755737 6.115235.228516l3.74414-3.222656c1.301421.656485 2.64708 1.214197 4.029297 1.667968l.369141 4.931641c.174588 2.334478 2.143398 4.164062 4.484375 4.164062h8.675781c2.340257 0 4.309794-1.829584 4.484375-4.164062l.371094-4.949219c1.377175-.454491 2.715766-1.009956 4.007812-1.662109l3.767578 3.24414c1.773952 1.526502 4.459601 1.426398 6.115235-.228515l6.132812-6.134766c1.655641-1.654913 1.755737-4.34129.228516-6.115234l-3.248047-3.771485c.65216-1.292047 1.207837-2.626649 1.660156-3.998047l4.964844-.371093c2.334487-.173861 4.164065-2.145359 4.164065-4.486328v-8.673829c0-2.340969-1.829578-4.311747-4.164065-4.486328l-4.962891-.36914c-.452319-1.37501-1.005028-2.714025-1.654296-4.003906l3.248046-3.771485c1.527223-1.773944 1.429071-4.459601-.226562-6.115234l-6.134766-6.134766c-1.654913-1.655634-4.34201-1.753784-6.115234-.226562l-3.75586 3.234375c-1.297097-.657198-2.64113-1.216664-4.017578-1.671875l-.367187-4.941407c-.174581-2.333759-2.146072-4.162109-4.486328-4.162109zm.882812 5.447266h6.912109l.44336 5.939453c.08657 1.165074.905936 2.144822 2.037109 2.435547 2.181548.560535 4.276803 1.433932 6.22461 2.591797 1.00709.598049 2.282585.486629 3.169921-.277344l4.519532-3.892578 4.886718 4.886718-3.902343 4.53125c-.762527.885889-.873739 2.158417-.279297 3.164063 1.145598 1.936264 2.009263 4.02804 2.568359 6.216797.290006 1.132612 1.270973 1.953725 2.4375 2.041015l5.962891.445313v6.912109l-5.964844.445313c-1.165801.08657-2.146767.906443-2.4375 2.039062-.55765 2.177936-1.424084 4.269417-2.576172 6.212891-.595161 1.005646-.483236 2.278166.279297 3.164062l3.904297 4.533203-4.886719 4.886719-4.529297-3.898437c-.886615-.763247-2.162323-.874673-3.167969-.277344-1.936264 1.149202-4.027827 2.015424-6.21875 2.578125-1.131171.290726-1.951772 1.270465-2.039062 2.435547l-.445312 5.951172h-6.910157l-.443359-5.935547c-.08729-1.16724-.908919-2.14894-2.042969-2.4375-2.189484-.558377-4.290264-1.427052-6.240234-2.582031-1.005653-.595165-2.278167-.483959-3.164063.279296l-4.503906 3.878907-4.886719-4.886719 3.871094-4.498047c.763975-.887335.875393-2.161604.277344-3.167969-1.16075-1.954302-2.033214-4.057631-2.59375-6.25-.290006-1.133337-1.269027-1.955678-2.435547-2.042968l-5.908203-.441407v-6.910156l5.912109-.441406c1.165801-.08729 2.147487-.908397 2.4375-2.041016.563415-2.202463 1.434651-4.305587 2.591797-6.251953.598049-1.006365.48663-2.282593-.277344-3.169922l-3.867187-4.490234 4.886718-4.886719 4.5 3.875c.88589.762534 2.160371.874461 3.166016.279297 1.954302-1.156425 4.053938-2.025101 6.244141-2.582031 1.134777-.288568 1.959585-1.269533 2.046875-2.4375z" fill="#212532"/><path d="m63.859212 43.81493c-6.538852 0-11.857534 5.318681-11.857534 11.857534 0 6.538861 5.318682 11.859814 11.857534 11.859814 6.538861 0 11.859812-5.320953 11.859814-11.859814 0-6.538853-5.320953-11.857534-11.859814-11.857534z" fill="#fff"/><path d="m63.859946 45.509857c-5.603914 0-10.163236 4.559322-10.163236 10.163237 0 5.603921 4.559322 10.163243 10.163236 10.163243 5.603922 0 10.163244-4.559322 10.163244-10.163243 0-5.603915-4.559322-10.163237-10.163244-10.163237m0 25.774571c-8.607874 0-15.611326-7.00346-15.611326-15.611334 0-8.607875 7.003452-15.611334 15.611326-15.611334 8.607882 0 15.611342 7.003459 15.611342 15.611334 0 8.607874-7.00346 15.611334-15.611342 15.611334" fill="#212532" stroke-width=".184681"/></g></g></svg>